<svg width="154" height="33" viewBox="0 0 154 33" fill="none" xmlns="http://www.w3.org/2000/svg">
<path fill-rule="evenodd" clip-rule="evenodd" d="M15.1823 0.552106C15.9967 0.905643 16.4806 1.75378 16.3705 2.63478L15.4515 9.98671H23.9859C24.762 9.98671 25.4679 10.4356 25.7971 11.1384C26.1263 11.8412 26.0192 12.6709 25.5224 13.2671L13.5224 27.6671C12.954 28.3491 12.004 28.5749 11.1895 28.2213C10.3751 27.8678 9.89124 27.0196 10.0014 26.1386L10.9204 18.7867H2.38592C1.60988 18.7867 0.9039 18.3378 0.57474 17.635C0.245581 16.9323 0.352671 16.1025 0.849477 15.5063L12.8495 1.10634C13.4179 0.424271 14.3679 0.198568 15.1823 0.552106ZM6.656 14.7867H13.1859C13.7596 14.7867 14.3056 15.033 14.6853 15.4631C15.0649 15.8932 15.2416 16.4655 15.1705 17.0348L14.8166 19.8658L19.7158 13.9867H13.1859C12.6123 13.9867 12.0662 13.7404 11.6866 13.3103C11.3069 12.8803 11.1302 12.3079 11.2014 11.7386L11.5552 8.90762L6.656 14.7867Z" fill="#0147FF"/>
<path d="M153.08 9.58862V12.8855H144.455V9.58862H153.08ZM146.439 5.41675H150.798V21.3386C150.798 21.8074 150.845 22.1667 150.939 22.4167C151.033 22.6667 151.173 22.8438 151.361 22.948C151.559 23.0417 151.819 23.0886 152.142 23.0886C152.361 23.0886 152.564 23.0782 152.752 23.0574C152.939 23.0261 153.08 22.9949 153.173 22.9636V26.3855C152.83 26.5209 152.465 26.6251 152.08 26.698C151.705 26.7709 151.257 26.8074 150.736 26.8074C149.861 26.8074 149.101 26.6407 148.455 26.3074C147.819 25.974 147.325 25.4428 146.97 24.7136C146.616 23.974 146.439 23.0053 146.439 21.8074V5.41675Z" fill="black"/>
<path d="M129.267 18.6199V17.4792C129.267 16.1563 129.423 14.9845 129.736 13.9636C130.059 12.9428 130.517 12.0886 131.111 11.4011C131.705 10.7032 132.418 10.1772 133.252 9.823C134.095 9.45841 135.038 9.27612 136.08 9.27612C137.132 9.27612 138.075 9.45841 138.908 9.823C139.752 10.1772 140.47 10.7032 141.064 11.4011C141.668 12.0886 142.132 12.9428 142.455 13.9636C142.778 14.9845 142.939 16.1563 142.939 17.4792V18.6199C142.939 19.9324 142.778 21.099 142.455 22.1199C142.132 23.1407 141.668 24.0001 141.064 24.698C140.47 25.3959 139.757 25.922 138.923 26.2761C138.09 26.6303 137.153 26.8074 136.111 26.8074C135.069 26.8074 134.127 26.6303 133.283 26.2761C132.45 25.922 131.731 25.3959 131.127 24.698C130.522 24.0001 130.059 23.1407 129.736 22.1199C129.423 21.099 129.267 19.9324 129.267 18.6199ZM133.642 17.4792V18.6199C133.642 19.4011 133.694 20.0782 133.798 20.6511C133.913 21.224 134.075 21.698 134.283 22.073C134.502 22.448 134.762 22.724 135.064 22.9011C135.366 23.0782 135.715 23.1667 136.111 23.1667C136.507 23.1667 136.861 23.0782 137.173 22.9011C137.486 22.724 137.741 22.448 137.939 22.073C138.147 21.698 138.298 21.224 138.392 20.6511C138.496 20.0782 138.548 19.4011 138.548 18.6199V17.4792C138.548 16.7188 138.491 16.0522 138.377 15.4792C138.262 14.8959 138.101 14.422 137.892 14.0574C137.684 13.6824 137.423 13.4011 137.111 13.2136C136.809 13.0157 136.465 12.9167 136.08 12.9167C135.694 12.9167 135.351 13.0157 135.048 13.2136C134.757 13.4011 134.502 13.6824 134.283 14.0574C134.075 14.422 133.913 14.8959 133.798 15.4792C133.694 16.0522 133.642 16.7188 133.642 17.4792Z" fill="black"/>
<path d="M118.298 12.8386V32.9949H113.939V9.58862H117.97L118.298 12.8386ZM127.08 17.4636V18.5886C127.08 19.9115 126.965 21.0834 126.736 22.1042C126.507 23.1147 126.163 23.974 125.705 24.6824C125.257 25.3803 124.694 25.9115 124.017 26.2761C123.34 26.6303 122.548 26.8074 121.642 26.8074C120.798 26.8074 120.069 26.6095 119.455 26.2136C118.851 25.8074 118.34 25.2501 117.923 24.5417C117.507 23.8334 117.173 23.0053 116.923 22.0574C116.673 21.1095 116.481 20.0938 116.345 19.0105V17.2605C116.47 16.1042 116.653 15.0417 116.892 14.073C117.132 13.0938 117.46 12.2449 117.877 11.5261C118.304 10.8074 118.819 10.2553 119.423 9.86987C120.038 9.47404 120.767 9.27612 121.611 9.27612C122.528 9.27612 123.325 9.44279 124.002 9.77612C124.689 10.1095 125.257 10.6147 125.705 11.2917C126.163 11.9584 126.507 12.8074 126.736 13.8386C126.965 14.8699 127.08 16.0782 127.08 17.4636ZM122.705 18.5886V17.4636C122.705 16.6511 122.658 15.9584 122.564 15.3855C122.481 14.8126 122.345 14.3438 122.158 13.9792C121.97 13.6147 121.726 13.349 121.423 13.1824C121.121 13.0157 120.752 12.9324 120.314 12.9324C119.887 12.9324 119.512 13.0157 119.189 13.1824C118.877 13.349 118.621 13.5938 118.423 13.9167C118.226 14.2292 118.075 14.6147 117.97 15.073C117.866 15.5209 117.809 16.0313 117.798 16.6042V19.6667C117.819 20.3438 117.908 20.9428 118.064 21.4636C118.231 21.9845 118.496 22.4011 118.861 22.7136C119.226 23.0157 119.72 23.1667 120.345 23.1667C120.793 23.1667 121.163 23.073 121.455 22.8855C121.757 22.698 122.002 22.4167 122.189 22.0417C122.377 21.6667 122.507 21.1928 122.58 20.6199C122.663 20.047 122.705 19.3699 122.705 18.5886Z" fill="black"/>
<path d="M106.486 20.5105C106.486 20.1042 106.45 19.7345 106.377 19.4011C106.304 19.0678 106.147 18.7605 105.908 18.4792C105.679 18.198 105.34 17.9167 104.892 17.6355C104.455 17.3542 103.882 17.0626 103.173 16.7605C102.33 16.4063 101.512 16.0313 100.72 15.6355C99.9287 15.2292 99.2152 14.7605 98.5797 14.2292C97.9443 13.698 97.4391 13.073 97.0641 12.3542C96.6995 11.6251 96.5172 10.7709 96.5172 9.79175C96.5172 8.83341 96.6891 7.96362 97.0329 7.18237C97.387 6.40112 97.887 5.73446 98.5329 5.18237C99.1787 4.61987 99.9339 4.18758 100.798 3.8855C101.673 3.58341 102.647 3.43237 103.72 3.43237C105.179 3.43237 106.439 3.73446 107.502 4.33862C108.575 4.94279 109.403 5.77091 109.986 6.823C110.58 7.87508 110.877 9.08341 110.877 10.448H106.314C106.314 9.80216 106.22 9.23446 106.033 8.74487C105.856 8.24487 105.569 7.85425 105.173 7.573C104.778 7.29175 104.267 7.15112 103.642 7.15112C103.059 7.15112 102.575 7.27091 102.189 7.5105C101.814 7.73966 101.533 8.05737 101.345 8.46362C101.168 8.85946 101.08 9.30737 101.08 9.80737C101.08 10.1824 101.168 10.5209 101.345 10.823C101.533 11.1147 101.788 11.3803 102.111 11.6199C102.434 11.849 102.814 12.073 103.252 12.2917C103.7 12.5105 104.189 12.724 104.72 12.9324C105.752 13.3386 106.663 13.7865 107.455 14.2761C108.246 14.7553 108.908 15.297 109.439 15.9011C109.97 16.4949 110.371 17.1667 110.642 17.9167C110.913 18.6667 111.048 19.5209 111.048 20.4792C111.048 21.4272 110.882 22.2917 110.548 23.073C110.226 23.8438 109.752 24.5105 109.127 25.073C108.502 25.6251 107.746 26.0522 106.861 26.3542C105.986 26.6563 105.007 26.8074 103.923 26.8074C102.871 26.8074 101.877 26.6615 100.939 26.3699C100.002 26.0678 99.1735 25.6147 98.4547 25.0105C97.7464 24.3959 97.1891 23.6199 96.7829 22.6824C96.3766 21.7345 96.1735 20.6147 96.1735 19.323H100.752C100.752 20.0105 100.819 20.599 100.955 21.0886C101.09 21.5678 101.298 21.9532 101.58 22.2449C101.861 22.5261 102.205 22.7397 102.611 22.8855C103.028 23.0209 103.502 23.0886 104.033 23.0886C104.637 23.0886 105.116 22.974 105.47 22.7449C105.835 22.5157 106.095 22.2084 106.252 21.823C106.408 21.4376 106.486 21.0001 106.486 20.5105Z" fill="black"/>
<path d="M89.611 21.9324C89.611 21.6407 89.512 21.3803 89.3141 21.1511C89.1162 20.922 88.8037 20.6876 88.3766 20.448C87.9495 20.198 87.3818 19.922 86.6735 19.6199C85.9027 19.3074 85.2204 18.9845 84.6266 18.6511C84.0329 18.3178 83.5277 17.948 83.111 17.5417C82.7047 17.1355 82.3975 16.672 82.1891 16.1511C81.9808 15.6303 81.8766 15.0365 81.8766 14.3699C81.8766 13.6511 82.0068 12.9897 82.2672 12.3855C82.5381 11.7709 82.9235 11.2345 83.4235 10.7761C83.9235 10.3074 84.5329 9.94279 85.2516 9.68237C85.9808 9.41154 86.7985 9.27612 87.7047 9.27612C88.9756 9.27612 90.0641 9.50008 90.9704 9.948C91.887 10.3855 92.5902 11.0001 93.0797 11.7917C93.5693 12.5834 93.8141 13.5053 93.8141 14.5574H89.4391C89.4391 14.1824 89.3818 13.849 89.2672 13.5574C89.1527 13.2553 88.9652 13.0209 88.7047 12.8542C88.4547 12.6876 88.1162 12.6042 87.6891 12.6042C87.3766 12.6042 87.0954 12.672 86.8454 12.8074C86.6058 12.9428 86.4131 13.1251 86.2672 13.3542C86.1318 13.573 86.0641 13.8334 86.0641 14.1355C86.0641 14.3647 86.111 14.5678 86.2047 14.7449C86.3089 14.922 86.4704 15.0938 86.6891 15.2605C86.9079 15.4272 87.1995 15.6042 87.5641 15.7917C87.9391 15.9688 88.3975 16.1667 88.9391 16.3855C90.0641 16.8022 90.986 17.2501 91.7047 17.7292C92.4339 18.2084 92.9756 18.7709 93.3297 19.4167C93.6839 20.0522 93.861 20.8386 93.861 21.7761C93.861 22.5261 93.7152 23.2084 93.4235 23.823C93.1422 24.4376 92.7308 24.9688 92.1891 25.4167C91.6475 25.8647 90.9964 26.2084 90.236 26.448C89.486 26.6876 88.6475 26.8074 87.7204 26.8074C86.3558 26.8074 85.2047 26.5365 84.2672 25.9949C83.3297 25.4532 82.6214 24.7605 82.1422 23.9167C81.6631 23.0626 81.4235 22.1772 81.4235 21.2605H85.5797C85.6006 21.823 85.7047 22.2657 85.8922 22.5886C86.0902 22.9011 86.3558 23.1199 86.6891 23.2449C87.0225 23.3699 87.3922 23.4324 87.7985 23.4324C88.2047 23.4324 88.5381 23.3803 88.7985 23.2761C89.0693 23.1615 89.2725 22.9897 89.4079 22.7605C89.5433 22.5209 89.611 22.2449 89.611 21.9324Z" fill="#0147FF"/>
<path d="M75.8922 13.3542V26.4949H71.5172V9.58862H75.6422L75.8922 13.3542ZM79.8766 9.46362L79.8141 13.823C79.6162 13.7813 79.3766 13.7501 79.0954 13.7292C78.8245 13.7084 78.585 13.698 78.3766 13.698C77.887 13.698 77.4704 13.7761 77.1266 13.9324C76.7829 14.0782 76.4964 14.3022 76.2672 14.6042C76.0485 14.8959 75.8818 15.2605 75.7672 15.698C75.6527 16.1355 75.585 16.6303 75.5641 17.1824L74.736 16.8699C74.736 15.7657 74.8193 14.7553 74.986 13.8386C75.1631 12.9115 75.4235 12.1095 75.7672 11.4324C76.111 10.7449 76.5225 10.2136 77.0016 9.83862C77.4912 9.46362 78.0433 9.27612 78.6579 9.27612C78.8662 9.27612 79.085 9.29696 79.3141 9.33862C79.5537 9.36987 79.7412 9.41154 79.8766 9.46362Z" fill="#0147FF"/>
<path d="M63.8766 22.6042V14.7917C63.8766 14.2813 63.8141 13.8751 63.6891 13.573C63.5745 13.2709 63.3975 13.0522 63.1579 12.9167C62.9287 12.7709 62.6475 12.698 62.3141 12.698C61.9391 12.698 61.6266 12.7761 61.3766 12.9324C61.1266 13.0886 60.9391 13.3126 60.8141 13.6042C60.6995 13.8959 60.6422 14.2449 60.6422 14.6511H56.2516C56.2516 13.922 56.3922 13.2345 56.6735 12.5886C56.9547 11.9324 57.3662 11.3595 57.9079 10.8699C58.46 10.3699 59.1162 9.97925 59.8766 9.698C60.637 9.41675 61.4912 9.27612 62.4391 9.27612C63.5641 9.27612 64.5641 9.46883 65.4391 9.85425C66.3141 10.2292 67.0068 10.8282 67.5172 11.6511C68.0277 12.474 68.2829 13.5417 68.2829 14.8542V22.3855C68.2829 23.3334 68.3297 24.1042 68.4235 24.698C68.5277 25.2917 68.6787 25.8022 68.8766 26.2292V26.4949H64.4704C64.2725 26.0261 64.1214 25.4428 64.0172 24.7449C63.9235 24.0365 63.8766 23.323 63.8766 22.6042ZM64.4079 16.1667L64.4235 18.7917H62.8141C62.3975 18.7917 62.0329 18.8595 61.7204 18.9949C61.4183 19.1303 61.1631 19.323 60.9547 19.573C60.7464 19.8126 60.5902 20.0938 60.486 20.4167C60.3922 20.7397 60.3454 21.0834 60.3454 21.448C60.3454 21.8542 60.4027 22.198 60.5172 22.4792C60.6318 22.7605 60.8037 22.974 61.0329 23.1199C61.262 23.2657 61.5329 23.3386 61.8454 23.3386C62.3245 23.3386 62.7412 23.2397 63.0954 23.0417C63.4495 22.8438 63.71 22.6042 63.8766 22.323C64.0537 22.0417 64.111 21.7813 64.0485 21.5417L65.0485 23.2449C64.9235 23.6303 64.7516 24.0313 64.5329 24.448C64.3245 24.8647 64.0589 25.2501 63.736 25.6042C63.4131 25.9584 63.012 26.2501 62.5329 26.4792C62.0641 26.698 61.5068 26.8074 60.861 26.8074C59.9547 26.8074 59.1266 26.599 58.3766 26.1824C57.6266 25.7657 57.0329 25.1824 56.5954 24.4324C56.1683 23.6824 55.9547 22.7917 55.9547 21.7605C55.9547 20.9063 56.0902 20.1355 56.361 19.448C56.6422 18.7501 57.0589 18.1615 57.611 17.6824C58.1631 17.1928 58.861 16.8178 59.7047 16.5574C60.5485 16.297 61.5381 16.1667 62.6735 16.1667H64.4079Z" fill="#0147FF"/>
<path d="M49.236 18.9167H53.7829C53.7204 20.6251 53.3766 22.0678 52.7516 23.2449C52.1266 24.4115 51.236 25.297 50.0797 25.9011C48.9339 26.5053 47.5485 26.8074 45.9235 26.8074C44.6631 26.8074 43.5433 26.599 42.5641 26.1824C41.585 25.7553 40.7516 25.1303 40.0641 24.3074C39.3766 23.4845 38.8558 22.4688 38.5016 21.2605C38.1579 20.0417 37.986 18.6407 37.986 17.0574V13.198C37.986 11.6147 38.1683 10.2136 38.5329 8.99487C38.9079 7.77612 39.4391 6.75529 40.1266 5.93237C40.8245 5.09904 41.6631 4.47404 42.6422 4.05737C43.6318 3.63029 44.7464 3.41675 45.986 3.41675C47.6422 3.41675 49.0277 3.72925 50.1422 4.35425C51.2568 4.97925 52.1162 5.89071 52.7204 7.08862C53.335 8.27612 53.7047 9.72925 53.8297 11.448H49.2672C49.236 10.3647 49.111 9.51571 48.8922 8.90112C48.6839 8.27612 48.3506 7.83862 47.8922 7.58862C47.4339 7.32821 46.7985 7.198 45.986 7.198C45.3818 7.198 44.861 7.30737 44.4235 7.52612C43.986 7.73446 43.6266 8.073 43.3454 8.54175C43.0641 9.0105 42.8558 9.62508 42.7204 10.3855C42.5954 11.1459 42.5329 12.073 42.5329 13.1667V17.0574C42.5329 18.1303 42.5902 19.047 42.7047 19.8074C42.8193 20.5574 43.0016 21.172 43.2516 21.6511C43.5016 22.1303 43.8402 22.4792 44.2672 22.698C44.7047 22.9167 45.2568 23.0261 45.9235 23.0261C46.6943 23.0261 47.3141 22.9115 47.7829 22.6824C48.262 22.4532 48.6162 22.0417 48.8454 21.448C49.0745 20.8542 49.2047 20.0105 49.236 18.9167Z" fill="#0147FF"/>
</svg>
