<svg width="26" height="29" viewBox="0 0 26 29" fill="none" xmlns="http://www.w3.org/2000/svg">
<path fill-rule="evenodd" clip-rule="evenodd" d="M14.7964 0.665387C15.6108 1.01892 16.0947 1.86706 15.9846 2.74806L15.0656 10.1H23.6C24.3761 10.1 25.082 10.5489 25.4112 11.2517C25.7404 11.9544 25.6333 12.7842 25.1365 13.3804L13.1365 27.7804C12.5681 28.4624 11.6181 28.6881 10.8036 28.3346C9.98921 27.9811 9.50534 27.1329 9.61547 26.2519L10.5345 18.9H2.00002C1.22399 18.9 0.518005 18.4511 0.188846 17.7483C-0.140314 17.0455 -0.0332238 16.2158 0.463582 15.6196L12.4636 1.21962C13.032 0.537553 13.982 0.311849 14.7964 0.665387ZM6.27011 14.9H12.8C13.3737 14.9 13.9197 15.1463 14.2994 15.5764C14.679 16.0064 14.8557 16.5788 14.7846 17.1481L14.4307 19.9791L19.3299 14.1H12.8C12.2264 14.1 11.6803 13.8537 11.3007 13.4236C10.921 12.9935 10.7443 12.4212 10.8155 11.8519L11.1693 9.0209L6.27011 14.9Z" fill="#0147FF"/>
</svg>
